# xmcd CD database file
#
# Track frame offsets:
#	150
#	8211
#	21118
#	36269
#	44762
#	53966
#	68506
#	84750
#	96203
#	112728
#	124929
#	142966
#	159072
#
# Disc length: 2300 seconds
#
# Revision: 0
# Processed by: cddbd v1.5.1PL0 Copyright (c) Steve Scherf et al.
# Submitted via: CDex 1.60beta1
#
DISCID=9a08fa0d
DTITLE=Little Muddy - Little Muddy
DYEAR=0
DGENRE=Blues
TTITLE0=Little Muddy - Border Toasts
TTITLE1=Little Muddy - Makanda
TTITLE2=Little Muddy - Wichita Lineman
TTITLE3=Little Muddy - Mision Accomplished
TTITLE4=Little Muddy - Son Of A Preacher Man
TTITLE5=Little Muddy - Little Muddy
TTITLE6=Little Muddy - Behind Closed Doors
TTITLE7=Little Muddy - Mohave Offramp
TTITLE8=Little Muddy - My Love Is
TTITLE9=Little Muddy - Double Knit
TTITLE10=Little Muddy - Addict
TTITLE11=Little Muddy - I Wish
TTITLE12=Little Muddy - Lilac Lane
EXTD=YEAR: 0
EXTT0=
EXTT1=
EXTT2=
EXTT3=
EXTT4=
EXTT5=
EXTT6=
EXTT7=
EXTT8=
EXTT9=
EXTT10=
EXTT11=
EXTT12=
PLAYORDER=
